<?xml version="1.0" encoding="UTF-8"?><svg id="Layer_2" xmlns="http://www.w3.org/2000/svg" viewBox="0 0 734 26.1"><defs><style>.cls-1{fill:#e2e2e2;}.cls-1,.cls-2,.cls-3,.cls-4{stroke-width:0px;}.cls-2{fill:#eac975;}.cls-3{fill:#91ca68;}.cls-4{fill:#c66c6a;}</style></defs><g id="Layer_1-2"><rect class="cls-1" width="734" height="26.1"/><path class="cls-3" d="M23.3,13c0,3.1-2.5,5.6-5.6,5.6s-5.6-2.5-5.6-5.6,2.5-5.6,5.6-5.6,5.6,2.5,5.6,5.6Z"/><path class="cls-2" d="M42.3,13c0,3.1-2.5,5.6-5.6,5.6s-5.6-2.5-5.6-5.6,2.5-5.6,5.6-5.6,5.6,2.5,5.6,5.6Z"/><path class="cls-4" d="M61.3,13c0,3.1-2.5,5.6-5.6,5.6s-5.6-2.5-5.6-5.6,2.5-5.6,5.6-5.6,5.6,2.5,5.6,5.6Z"/></g></svg>